<svg id="emoji" viewBox="0 0 72 72" xmlns="http://www.w3.org/2000/svg">
  <g id="skin">
    <circle cx="33.9688" cy="8.0938" r="3" fill="#7FBCD4" stroke="none"/>
    <path fill="#7FBCD4" stroke="none" d="M42,18.0005L45,36l-1,14l-2.2998,17h-3.2998L39,51V38h-2l-5,9l2,11h-3l-4-12l6-14l-2-10l-2.7227-1.3428 c0,0-1.5986-1.6943-1.8183-1.6572c-1.1348,0.1909-6.0811,1.1738-6.7715,1.125c-2.6562-0.1875-4-2.125-7.6875-6.1245 c-1.4629-1.5864,0.375-2.6255,0.375-2.6255L19,18.0005l10-2l6-1h6l7,1l12,2c0,0-0.0156,2.248-2,2 C42,18.0005,42,18.0005,42,18.0005z"/>
  </g>
  <g class="line" fill="none" stroke="#000000" stroke-miterlimit="10" stroke-width="2">
    <circle cx="33.9688" cy="8.0938" r="3" />
    <path stroke-linecap="round" stroke-linejoin="round" d="M12.875,12l4.6963,4.6006c0.7861,0.7695,2.3115,1.2231,3.3896,1.0073l6.0782-1.2158c1.0781-0.2158,2.8584-0.4609,3.955-0.5454 l9.0118-0.6934c1.0966-0.0845,2.8808,0.003,3.9638,0.1944L59,18"/>
    <path stroke-linecap="round" stroke-linejoin="round" d="M29,20c0,0,0.4502,0.4502,1,1c0.5498,0.5498,1.1758,1.8823,1.3926,2.9609l1.2148,6.0782c0.2168,1.0781,0.0381,2.788-0.3945,3.7988 l-4.4258,10.3242c-0.4326,1.0108-0.5019,2.6914-0.1543,3.7354l2.7344,8.205C30.7148,57.1465,31.6748,58,32.5,58 c0.8252,0,1.3389-0.8857,1.1426-1.9678l-1.2852-7.0644c-0.1963-1.0821,0.0801-2.7549,0.6133-3.7158l3.0576-5.504 C36.5625,38.7871,37.4492,38,38,38c0.5498,0,1,0.9004,1,2v9c0,1.0996-0.0342,2.8994-0.0752,3.999l-0.4492,12.002 C38.4346,66.1006,39.1426,67,40.0508,67c0.9072,0,1.7705-0.8916,1.918-1.9824l1.7626-13.0352 c0.1475-1.0908,0.3331-2.8799,0.4112-3.9775l0.7148-10.0098c0.0781-1.0976-0.0136-2.8818-0.2051-3.9648L42,19"/>
  </g>
</svg>
