<svg width="500" height="500" viewBox="0 0 500 500" fill="none" xmlns="http://www.w3.org/2000/svg">
<rect width="500" height="500" rx="74" fill="#E88C1F"/>
<path d="M130 250C130 226.627 133.754 205.759 141.262 187.395C149.048 169.031 159.475 153.449 172.545 140.65C185.892 127.851 201.047 118.112 218.009 111.434C235.249 104.478 253.462 101 272.649 101C290.724 101 307.269 103.504 322.284 108.513C337.578 113.243 352.455 120.477 366.914 130.216L330.627 183.639C322.006 177.796 312.691 173.065 302.681 169.448C292.67 165.553 281.965 163.605 270.564 163.605C257.216 163.605 244.981 166.805 233.859 173.204C223.014 179.604 214.255 189.204 207.581 202.003C201.186 214.802 197.988 230.801 197.988 250C197.988 269.199 201.186 285.198 207.581 297.997C214.255 310.796 223.153 320.396 234.276 326.796C245.398 333.195 257.634 336.395 270.981 336.395C282.382 336.395 292.948 334.308 302.681 330.134C312.691 325.961 322.006 320.396 330.627 313.44L369 365.193C354.819 376.323 340.081 384.81 324.787 390.653C309.493 396.218 292.392 399 273.483 399C254.297 399 235.944 395.661 218.426 388.983C201.186 382.027 185.892 372.149 172.545 359.35C159.475 346.551 149.048 330.969 141.262 312.605C133.754 294.241 130 273.373 130 250Z" fill="#FDFBF7"/>
</svg>
