<svg width="400" height="400" viewBox="0 0 400 400" fill="none" xmlns="http://www.w3.org/2000/svg">
<rect width="400" height="400" rx="30" fill="#E88C1F"/>
<path
    d="m 312 122.5 c 0.2 -2.1 -1.4 -3.1 -2.5 -4.5 c -13.1 -15.8 -29.1 -27.9 -47.6 -36.3 c -10.6 -4.8 -22 -8 -33.9 -9.4 c -11.4 -1.4 -22.6 -2.1 -34 -0.8 c -14.5 1.6 -28.3 5.8 -41.5 12 c -21.1 9.9 -38 24.9 -51.3 43.6 c -8.5 11.8 -14.6 25.1 -18.2 39.4 c -3.7 14.6 -5.8 29.3 -4.2 44.5 c 1.1 10.4 2.6 20.5 5.7 30.5 c 4.5 14.6 11.8 27.9 21.1 39.9 c 10.6 13.7 23.4 25.1 38.5 33.5 c 17.5 9.7 36.3 15.5 56.4 16.7 c 7.4 0.4 14.8 0.5 22 -0.4 c 8.6 -1 17.2 -2.9 25.6 -5.5 c 10.4 -3.3 20.2 -7.6 29.4 -13.3 c 13.2 -8.2 25.1 -18 34.4 -31.1 c -21.9 -16.5 -43.8 -32.8 -65.9 -49.4 c -10.1 11.4 -22.4 17.2 -37.4 17.1 c -13.6 -0.2 -25.1 -5.7 -33.9 -15.6 c -17.8 -20 -15.2 -51.1 5.8 -68 c 18.7 -15.1 49.3 -13 65.5 7.2 c 22 -16.5 44 -33 66 -50.1 z"
    fill="#FFF"
    stroke="#000"
    stroke-width="18"
/>
</svg>
